<?xml version="1.0" standalone="no"?>
<!DOCTYPE svg PUBLIC "-//W3C//DTD SVG 20010904//EN"
 "http://www.w3.org/TR/2001/REC-SVG-20010904/DTD/svg10.dtd">
<svg version="1.0" xmlns="http://www.w3.org/2000/svg"
 width="72.000000pt" height="72.000000pt" viewBox="0 0 72.000000 72.000000"
 preserveAspectRatio="xMidYMid meet">

<g transform="translate(0.000000,72.000000) scale(0.100000,-0.100000)"
fill="#000000" stroke="none">
<path d="M277 710 c-105 -27 -197 -104 -244 -205 -23 -51 -28 -73 -27 -145 0
-72 4 -95 28 -146 35 -77 103 -145 181 -181 51 -23 73 -28 145 -28 72 0 94 5
145 28 78 36 146 104 181 181 24 52 28 74 28 146 0 72 -4 94 -28 146 -55 121
-172 201 -303 209 -37 2 -85 0 -106 -5z m206 -46 c59 -20 148 -100 176 -157
65 -135 42 -284 -62 -388 -65 -65 -135 -93 -232 -93 -65 0 -90 4 -136 26 -72
33 -134 95 -167 167 -38 80 -38 192 0 272 75 163 246 233 421 173z"/>
<path d="M263 652 c-229 -82 -287 -373 -105 -533 155 -136 398 -87 489 99 37
75 40 191 6 263 -67 148 -241 224 -390 171z m197 -47 c43 -21 97 -71 116 -106
7 -15 18 -71 23 -125 6 -55 14 -114 20 -131 8 -27 7 -33 -5 -33 -8 0 -13 4
-10 9 3 4 0 36 -6 70 -10 51 -15 61 -32 62 -18 2 -18 2 3 6 22 4 23 7 16 61
-12 96 -66 159 -161 188 -82 25 -152 15 -219 -29 l-30 -20 21 22 c48 52 187
65 264 26z m-117 -185 c3 -11 3 -20 1 -20 -2 0 -8 9 -14 20 -6 11 -7 20 -2 20
6 0 12 -9 15 -20z m57 -10 c8 -5 11 -10 5 -10 -5 0 -17 5 -25 10 -8 5 -10 10
-5 10 6 0 17 -5 25 -10z m70 -25 c19 -7 28 -14 20 -14 -8 0 -28 6 -45 14 -39
17 -21 18 25 0z m67 -21 c-3 -3 -12 -4 -19 -1 -8 3 -5 6 6 6 11 1 17 -2 13 -5z
m-53 -93 c28 -17 46 -31 41 -31 -16 0 -101 60 -130 92 l-30 33 35 -32 c19 -17
57 -45 84 -62z m91 -41 c13 -6 15 -9 5 -9 -8 0 -22 4 -30 9 -18 12 -2 12 25 0z"/>
</g>
</svg>
